<?xml version="1.0" encoding="utf-8"?>
<!-- Uploaded to: SVG Repo, www.svgrepo.com, Generator: SVG Repo Mixer Tools -->
<svg fill="#000000" width="800px" height="800px" viewBox="0 0 32 32" version="1.1" xmlns="http://www.w3.org/2000/svg">
    <title>question</title>
    <path d="M19.943 5.251c-1.145-0.635-2.511-1.008-3.964-1.008-1.461 0-2.834 0.378-4.026 1.040l0.042-0.022c-1.649 0.916-2.746 2.648-2.746 4.635 0 0.037 0 0.074 0.001 0.111l-0-0.006c0.001 0.413 0.336 0.747 0.75 0.747 0 0 0 0 0 0h-0c0.407-0.021 0.731-0.346 0.75-0.751l0-0.002c-0.001-0.026-0.001-0.058-0.001-0.089 0-1.441 0.8-2.694 1.98-3.341l0.020-0.010c0.934-0.511 2.047-0.812 3.23-0.812 1.178 0 2.287 0.298 3.255 0.824l-0.036-0.018c1.23 0.657 2.053 1.933 2.053 3.401 0 0.017-0 0.033-0 0.050l0-0.003c0.033 0.19 0.051 0.408 0.051 0.631 0 1.699-1.084 3.145-2.598 3.684l-0.027 0.008c-2.303 1.102-3.424 3.285-3.426 6.677 0 0 0 0 0 0.001 0 0.414 0.335 0.749 0.749 0.749h0.001c0.414-0 0.75-0.336 0.75-0.75v0c0.002-2.793 0.819-4.485 2.586-5.329 2.037-0.783 3.457-2.725 3.457-4.997 0-0.238-0.016-0.473-0.046-0.703l0.003 0.027c0-0.017 0-0.037 0-0.057 0-2.018-1.123-3.774-2.779-4.676l-0.028-0.014zM15.46 25.459c-0.123 0.145-0.198 0.334-0.2 0.541v0c-0.001 0.016-0.002 0.034-0.002 0.052 0 0.082 0.015 0.16 0.044 0.231l-0.002-0.004c0.039 0.094 0.093 0.173 0.16 0.24l0 0c0.071 0.076 0.158 0.137 0.255 0.178l0.005 0.002c0.084 0.026 0.18 0.041 0.28 0.041s0.196-0.015 0.287-0.043l-0.007 0.002c0.102-0.043 0.189-0.104 0.26-0.179l0-0c0.067-0.067 0.12-0.147 0.157-0.235l0.002-0.005c0.038-0.079 0.061-0.173 0.061-0.271 0-0.003-0-0.006-0-0.009v0c-0.010-0.209-0.092-0.397-0.221-0.542l0.001 0.001c-0.145-0.121-0.334-0.195-0.54-0.195s-0.395 0.074-0.541 0.196l0.001-0.001z"></path>
</svg>