<?xml version="1.0" encoding="UTF-8" standalone="no"?>
<svg
        xmlns:inkscape="http://www.inkscape.org/namespaces/inkscape"
        xmlns:sodipodi="http://sodipodi.sourceforge.net/DTD/sodipodi-0.dtd"
        viewBox="0 0 127.17 127.21"
        version="1.1"
        id="svg16"
        sodipodi:docname="semester.svg"
        inkscape:version="1.3.2 (1:1.3.2+202311252150+091e20ef0f)"
        xmlns="http://www.w3.org/2000/svg">
  <sodipodi:namedview
          id="namedview16"
          pagecolor="#ffffff"
          bordercolor="#000000"
          borderopacity="0.25"
          inkscape:showpageshadow="2"
          inkscape:pageopacity="0.0"
          inkscape:pagecheckerboard="0"
          inkscape:deskcolor="#d1d1d1"
          inkscape:zoom="6.4538952"
          inkscape:cx="63.605"
          inkscape:cy="63.605"
          inkscape:window-width="1920"
          inkscape:window-height="1018"
          inkscape:window-x="0"
          inkscape:window-y="0"
          inkscape:window-maximized="1"
          inkscape:current-layer="svg16"/>
  <defs
          id="defs1">
    <style
            id="style1">.cls-1{fill:#e72429;}
    </style>
  </defs>
  <g
          id="Layer_2"
          data-name="Layer 2"
          transform="matrix(0.91348418,0,0,0.91348418,5.5011087,5.502839)">
    <g
            id="Layer_1-2"
            data-name="Layer 1">
      <path
              class="cls-1"
              d="M 18.45,63.47 A 18.4,18.4 0 0 0 2.31,45.23 73.13,73.13 0 0 0 2.31,81.7 18.38,18.38 0 0 0 18.45,63.47"
              id="path1"/>
      <path
              class="cls-1"
              d="M 29.13,57.7 A 5.77,5.77 0 1 0 34.9,63.47 5.77,5.77 0 0 0 29.13,57.7"
              id="path2"/>
      <path
              class="cls-1"
              d="m 108.72,63.47 a 18.38,18.38 0 0 0 16.14,18.23 73.13,73.13 0 0 0 0,-36.47 18.4,18.4 0 0 0 -16.14,18.24"
              id="path3"/>
      <path
              class="cls-1"
              d="m 98,57.7 a 5.77,5.77 0 1 0 5.76,5.77 A 5.77,5.77 0 0 0 98,57.7"
              id="path4"/>
      <path
              class="cls-1"
              d="m 63.46,108.77 a 18.39,18.39 0 0 0 -18.23,16.13 73.13,73.13 0 0 0 36.47,0 18.38,18.38 0 0 0 -18.24,-16.13"
              id="path5"/>
      <path
              class="cls-1"
              d="m 63.47,92.31 a 5.77,5.77 0 1 0 5.76,5.77 5.77,5.77 0 0 0 -5.76,-5.77"
              id="path6"/>
      <path
              class="cls-1"
              d="M 63.47,18.44 A 18.37,18.37 0 0 0 81.7,2.31 a 73.13,73.13 0 0 0 -36.47,0 18.39,18.39 0 0 0 18.24,16.13"
              id="path7"/>
      <path
              class="cls-1"
              d="m 63.47,23.37 a 5.77,5.77 0 1 0 5.76,5.76 5.76,5.76 0 0 0 -5.76,-5.76"
              id="path8"/>
      <path
              class="cls-1"
              d="m 95.44,95.44 a 18.4,18.4 0 0 0 -1.5,24.29 73,73 0 0 0 25.78,-25.79 18.39,18.39 0 0 0 -24.28,1.5"
              id="path9"/>
      <path
              class="cls-1"
              d="m 83.8,83.8 a 5.77,5.77 0 1 0 8.16,0 5.78,5.78 0 0 0 -8.16,0"
              id="path10"/>
      <path
              class="cls-1"
              d="M 31.59,31.59 A 18.36,18.36 0 0 0 33.09,7.31 72.93,72.93 0 0 0 7.31,33.09 18.36,18.36 0 0 0 31.59,31.59"
              id="path11"/>
      <path
              class="cls-1"
              d="m 35.07,35.08 a 5.77,5.77 0 1 0 8.16,0 5.78,5.78 0 0 0 -8.16,0"
              id="path12"/>
      <path
              class="cls-1"
              d="M 95.4,31.53 A 18.39,18.39 0 0 0 119.69,33 72.88,72.88 0 0 0 93.9,7.25 18.39,18.39 0 0 0 95.4,31.53"
              id="path13"/>
      <path
              class="cls-1"
              d="m 91.92,43.17 a 5.76,5.76 0 1 0 -8.15,0 5.76,5.76 0 0 0 8.15,0"
              id="path14"/>
      <path
              class="cls-1"
              d="M 31.56,95.37 A 18.39,18.39 0 0 0 7.28,93.87 73,73 0 0 0 33.06,119.66 18.38,18.38 0 0 0 31.56,95.37"
              id="path15"/>
      <path
              class="cls-1"
              d="m 35,83.73 a 5.77,5.77 0 1 0 8.16,0 5.79,5.79 0 0 0 -8.16,0"
              id="path16"/>
    </g>
  </g>
</svg>
