<?xml version="1.0" encoding="utf-8"?>
<!-- Uploaded to: SVG Repo, www.svgrepo.com, Generator: SVG Repo Mixer Tools -->
<svg fill="#000000" width="800px" height="800px" viewBox="0 0 32 32" version="1.1" xmlns="http://www.w3.org/2000/svg">
    <title>file-arrow-down</title>
    <path d="M26.731 9.902c-0.005-0.035-0.011-0.066-0.019-0.095l0.001 0.005c-0.031-0.134-0.094-0.249-0.182-0.342l0 0-8-8c-0.092-0.087-0.207-0.15-0.335-0.181l-0.005-0.001c-0.027-0.008-0.059-0.014-0.092-0.019l-0.003-0c-0.026-0.007-0.059-0.014-0.092-0.019l-0.004-0h-12c-0.414 0-0.75 0.336-0.75 0.75v0 28c0 0.414 0.336 0.75 0.75 0.75h20c0.414-0 0.75-0.336 0.75-0.75v0-20c-0.005-0.038-0.012-0.071-0.020-0.103l0.001 0.005zM24.189 9.25h-5.439v-5.439zM6.75 29.25v-26.5h10.5v7.25c0 0.414 0.336 0.75 0.75 0.75h7.25v18.5zM20.469 20.91l-3.719 3.721v-10.676c0-0.414-0.336-0.75-0.75-0.75s-0.75 0.336-0.75 0.75v0 10.675l-3.72-3.72c-0.136-0.134-0.322-0.218-0.528-0.218-0.415 0-0.751 0.336-0.751 0.751 0 0.207 0.083 0.394 0.219 0.529l5 5c0.026 0.026 0.065 0.017 0.093 0.038 0.052 0.040 0.088 0.098 0.15 0.124 0.085 0.035 0.184 0.056 0.287 0.057h0c0 0 0 0 0 0 0.207 0 0.394-0.084 0.53-0.219l5.001-5c0.136-0.136 0.22-0.324 0.22-0.531 0-0.415-0.336-0.751-0.751-0.751-0.207 0-0.395 0.084-0.531 0.22v0z"></path>
</svg>