<?xml version="1.0" encoding="iso-8859-1"?>
<!-- Uploaded to: SVG Repo, www.svgrepo.com, Generator: SVG Repo Mixer Tools -->
<svg height="800px" width="800px" version="1.1" id="Layer_1"
     xmlns="http://www.w3.org/2000/svg"
     viewBox="0 0 512 512" xml:space="preserve">
<path style="fill:#00384E;" d="M310.624,0H64v512h384V137.376L310.624,0z M320,54.624L393.376,128H320V54.624z M96,480V32h192v128
	h128v320H96z"/>
    <polygon style="fill:#72C6EF;" points="384,448 128,448 128,64 288,64 288,160 384,160 "/>
    <circle style="fill:#00384D;" cx="256" cy="400" r="16"/>
    <path style="fill:#00384E;" d="M272,368h-32v-64h16c17.648,0,32-14.352,32-32s-14.352-32-32-32s-32,14.352-32,32h-32
	c0-35.296,28.704-64,64-64s64,28.704,64,64c0,29.76-20.416,54.864-48,61.968V368z"/>
</svg>