<?xml version="1.0" encoding="iso-8859-1"?>
<!-- Uploaded to: SVG Repo, www.svgrepo.com, Generator: SVG Repo Mixer Tools -->
<svg height="800px" width="800px" version="1.1" id="Layer_1"
     xmlns="http://www.w3.org/2000/svg"
     viewBox="0 0 512 512" xml:space="preserve">
<path style="fill:#00384E;" d="M310.624,0H64v512h384V137.376L310.624,0z M320,54.624L393.376,128H320V54.624z M96,480V32h192v128
	h128v320H96z"/>
    <polygon style="fill:#72C6EF;" points="384,448 128,448 128,64 288,64 288,160 384,160 "/>
    <path style="fill:#00384D;" d="M256,208c-52.944,0-96,43.056-96,96s43.056,96,96,96s96-43.056,96-96S308.944,208,256,208z M256,240
	c11.84,0,22.784,3.456,32.32,9.072l-87.248,87.216c-5.632-9.504-9.056-20.464-9.056-32.304C192,268.704,220.72,240,256,240z
	 M256,368c-11.84,0-22.784-3.456-32.32-9.072l87.248-87.216c5.632,9.504,9.056,20.464,9.056,32.304C320,339.296,291.28,368,256,368z
	"/>
</svg>