<!DOCTYPE svg PUBLIC "-//W3C//DTD SVG 1.1//EN" "http://www.w3.org/Graphics/SVG/1.1/DTD/svg11.dtd">
<!-- Uploaded to: SVG Repo, www.svgrepo.com, Transformed by: SVG Repo Mixer Tools -->
<svg width="800px"
     height="800px" viewBox="0 0 24 24" xmlns="http://www.w3.org/2000/svg"
     version="1.1" fill="#000000">

    <g id="SVGRepo_bgCarrier" stroke-width="0"/>

    <g id="SVGRepo_tracerCarrier" stroke-linecap="round" stroke-linejoin="round"/>

    <g id="SVGRepo_iconCarrier">
        <g transform="translate(0 -1028.4)">
            <path d="m5 1030.4c-1.1046 0-2 0.9-2 2v8 4 6c0 1.1 0.8954 2 2 2h14c1.105 0 2-0.9 2-2v-6-4-4l-6-6h-10z"
                  fill="#74898b"/>
            <path d="m5 1029.4c-1.1046 0-2 0.9-2 2v8 4 6c0 1.1 0.8954 2 2 2h14c1.105 0 2-0.9 2-2v-6-4-4l-6-6h-10z"
                  fill="#bdc3c7"/>
            <path d="m21 1035.4-6-6v4c0 1.1 0.895 2 2 2h4z" fill="#74898b"/>
            <path d="m6 8v1h12v-1h-12zm0 3v1h12v-1h-12zm0 3v1h12v-1h-12zm0 3v1h12v-1h-12z"
                  transform="translate(0 1028.4)" fill="#74898b"/>
        </g>
    </g>

</svg>